<?xml version="1.0" encoding="utf-8"?>
<!-- Generator: Adobe Illustrator 21.0.0, SVG Export Plug-In . SVG Version: 6.00 Build 0)  -->
<svg version="1.1" id="Capa_1" xmlns="http://www.w3.org/2000/svg" xmlns:xlink="http://www.w3.org/1999/xlink" x="0px" y="0px"
	 viewBox="0 0 612 352" style="enable-background:new 0 0 612 352;" xml:space="preserve">
<style type="text/css">
	.st0{fill:#333333;}
</style>
<g>
	<g>
		<path class="st0" d="M226.8,245.4c-28.2,0-51.1,22.9-51.1,51.2c0,28.2,22.8,51.1,51.1,51.1s51.1-22.9,51.1-51.1
			C277.8,268.3,255,245.4,226.8,245.4z M226.8,322c-14.1,0-25.5-11.5-25.5-25.5c0-14.1,11.4-25.5,25.5-25.5
			c14.1,0,25.5,11.4,25.5,25.5C252.3,310.6,240.9,322,226.8,322z M612,207.6v54.5c0,13.6-11,24.6-24.6,24.6H561
			c-4.8-32.7-32.9-57.8-66.9-57.8c-33.9,0-62.1,25.1-66.8,57.8H293.6c-4.8-32.7-32.9-57.8-66.8-57.8s-62.1,25.1-66.8,57.8h-33
			c-13.6,0-24.6-11-24.6-24.6v-54.5L612,207.6L612,207.6z M494.1,245.4c-28.2,0-51.2,22.9-51.2,51.2c0,28.2,22.9,51.1,51.2,51.1
			c28.2,0,51.1-22.9,51.1-51.1C545.2,268.3,522.3,245.4,494.1,245.4z M494.1,322c-14.1,0-25.5-11.5-25.5-25.5
			c0-14.1,11.4-25.5,25.5-25.5c14,0,25.5,11.4,25.5,25.5C519.7,310.6,508.2,322,494.1,322z M602.3,152.6l-96.8-95.8
			c-6.2-6.1-14.5-9.5-23.1-9.5h-48.9V29c0-13.6-11-24.6-24.6-24.6h-282c-13.6,0-24.6,11-24.6,24.6v3.9L2.3,44.4l177.1,23.1L0,85.3
			l178.8,25.4L0,126.3l102.3,19.3l0,48.4H612v-18C612,167.2,608.5,158.8,602.3,152.6z M560.1,155.8h-93.7c-2.1,0-3.9-1.7-3.9-3.9
			V79.6c0-2.1,1.7-3.9,3.9-3.9h17.8c1,0,2,0.4,2.7,1.1l75.8,72.3C565.3,151.6,563.5,155.8,560.1,155.8z"/>
	</g>
</g>
</svg>
