<?xml version="1.0" encoding="UTF-8"?><!DOCTYPE svg PUBLIC "-//W3C//DTD SVG 1.1//EN" "http://www.w3.org/Graphics/SVG/1.1/DTD/svg11.dtd"><svg xmlns="http://www.w3.org/2000/svg" xmlns:xlink="http://www.w3.org/1999/xlink"><symbol id="deliveries" viewBox="0 0 612 352"><path d="M226.8 245.4c-28.2 0-51.1 22.9-51.1 51.2 0 28.2 22.8 51.1 51.1 51.1s51.1-22.9 51.1-51.1c-.1-28.3-22.9-51.2-51.1-51.2zm0 76.6c-14.1 0-25.5-11.5-25.5-25.5 0-14.1 11.4-25.5 25.5-25.5s25.5 11.4 25.5 25.5-11.4 25.5-25.5 25.5zM612 207.6v54.5c0 13.6-11 24.6-24.6 24.6H561c-4.8-32.7-32.9-57.8-66.9-57.8-33.9 0-62.1 25.1-66.8 57.8H293.6c-4.8-32.7-32.9-57.8-66.8-57.8S164.7 254 160 286.7h-33c-13.6 0-24.6-11-24.6-24.6v-54.5H612zm-117.9 37.8c-28.2 0-51.2 22.9-51.2 51.2 0 28.2 22.9 51.1 51.2 51.1 28.2 0 51.1-22.9 51.1-51.1 0-28.3-22.9-51.2-51.1-51.2zm0 76.6c-14.1 0-25.5-11.5-25.5-25.5 0-14.1 11.4-25.5 25.5-25.5 14 0 25.5 11.4 25.5 25.5.1 14.1-11.4 25.5-25.5 25.5zm108.2-169.4l-96.8-95.8c-6.2-6.1-14.5-9.5-23.1-9.5h-48.9V29c0-13.6-11-24.6-24.6-24.6h-282c-13.6 0-24.6 11-24.6 24.6v3.9L2.3 44.4l177.1 23.1L0 85.3l178.8 25.4L0 126.3l102.3 19.3V194H612v-18c0-8.8-3.5-17.2-9.7-23.4zm-42.2 3.2h-93.7c-2.1 0-3.9-1.7-3.9-3.9V79.6c0-2.1 1.7-3.9 3.9-3.9h17.8c1 0 2 .4 2.7 1.1l75.8 72.3c2.6 2.5.8 6.7-2.6 6.7z" fill="#333"/></symbol><symbol id="mail" viewBox="0 0 14 14"><style>.st0{fill:#333}</style><path class="st0" d="M7 9L5.3 7.5l-5 4.2c.2.2.4.3.7.3h12c.3 0 .5-.1.7-.3l-5-4.2L7 9z"/><path class="st0" d="M13.7 2.3c-.2-.2-.4-.3-.7-.3H1c-.3 0-.5.1-.7.3L7 8l6.7-5.7zM0 2.9v8.3l4.8-4.1zM9.2 7.1l4.8 4.1V2.9z"/></symbol><symbol id="phone" viewBox="0 0 51.4 51.4"><style>.st0{fill:#333}</style><path class="st0" d="M26 12.3c8.7.1 14.1-.5 14.8 9.1h10.6c0-14.9-13-16.9-25.7-16.9S.1 6.5.1 21.4h10.5c.7-9.8 6.8-9.2 15.4-9.1zM5.3 26.2c2.6 0 4.7.2 5.2-2.4.1-.3.1-.7.1-1.2H0c0 3.8 2.4 3.6 5.3 3.6zM40.9 22.6c-.1.5-.1.8 0 1.2.5 2.3 2.6 2.2 5.2 2.2 2.9 0 5.3.2 5.3-3.4H40.9z"/><path class="st0" d="M35.7 20.1v-1.5c0-.7-.8-.7-1.7-.7h-1.6c-1 0-1.7 0-1.7.7v2.3h-11v-2.3c0-.7-.8-.7-1.7-.7h-1.6c-1 0-1.7 0-1.7.7v2.8C12.2 24 4 35.1 3.7 36.4v9c0 .8.7 1.5 1.5 1.5h40c.8 0 1.5-.7 1.5-1.5v-9c-.3-1.3-8.5-12.4-11-15v-1.3zM19.2 37.6c-.8 0-1.5-.7-1.5-1.5s.7-1.5 1.5-1.5 1.5.7 1.5 1.5-.7 1.5-1.5 1.5zm0-5c-.8 0-1.5-.7-1.5-1.5s.7-1.5 1.5-1.5 1.5.7 1.5 1.5-.7 1.5-1.5 1.5zm0-5c-.8 0-1.5-.7-1.5-1.5s.7-1.5 1.5-1.5 1.5.7 1.5 1.5c-.1.9-.7 1.5-1.5 1.5zm6 10c-.8 0-1.5-.7-1.5-1.5s.7-1.5 1.5-1.5 1.5.7 1.5 1.5-.7 1.5-1.5 1.5zm0-5c-.8 0-1.5-.7-1.5-1.5s.7-1.5 1.5-1.5 1.5.7 1.5 1.5-.7 1.5-1.5 1.5zm0-5c-.8 0-1.5-.7-1.5-1.5s.7-1.5 1.5-1.5 1.5.7 1.5 1.5c-.1.9-.7 1.5-1.5 1.5zm6 10c-.8 0-1.5-.7-1.5-1.5s.7-1.5 1.5-1.5 1.5.7 1.5 1.5-.7 1.5-1.5 1.5zm0-5c-.8 0-1.5-.7-1.5-1.5s.7-1.5 1.5-1.5 1.5.7 1.5 1.5-.7 1.5-1.5 1.5zm0-5c-.8 0-1.5-.7-1.5-1.5s.7-1.5 1.5-1.5 1.5.7 1.5 1.5c-.1.9-.7 1.5-1.5 1.5z"/></symbol><symbol id="pickups" viewBox="0 0 612 612"><path d="M257.9 336.1c0 17.4-14.1 31.4-31.4 31.4-17.4 0-31.4-14.1-31.4-31.4 0-17.4 14.1-31.4 31.4-31.4 17.4-.1 31.4 14 31.4 31.4zm127.6-31.5c-17.4 0-31.4 14.1-31.4 31.4 0 17.4 14.1 31.4 31.4 31.4s31.4-14.1 31.4-31.4c0-17.3-14.1-31.4-31.4-31.4zm226.5 14v59.7c0 30-24.3 54.3-54.3 54.3h-39.4C479.3 541 379.6 606.4 306 606.4S132.7 540.9 93.7 432.6H54.3c-30 0-54.3-24.3-54.3-54.3v-59.7C0 298 11.5 280 28.5 270.8 29 186 53.7 119.8 102 74 149.9 28.6 218.5 5.6 306 5.6s156.1 23 204 68.4c48.3 45.8 73 112 73.6 196.8 16.9 9.2 28.4 27.1 28.4 47.8zm-114.9 17.7c0-14-.7-27.1-1.8-39.8-24.1-22-67.8-38.8-123-45 7.2 8.1 13.5 18.9 17.3 33-33.8-26.6-100.2-20.3-150.4-79.9-2.9-3.3-5.4-6.5-7.5-9.4l-.1-.1c-8.9-12.1-12-19.3-12.1-11.3-1.5 68.5-50 121.9-104 129.5-.3 7.5-.6 15.1-.6 23.1 0 29 4.7 55.4 12.8 79.1C158 451.9 208 462.3 252.3 465c8.2-13.1 26.7-22.2 48.1-22.2 29.1 0 52.7 16.8 52.7 37.4 0 20.7-23.6 37.4-52.7 37.4-22.4 0-41.5-9.9-49.1-23.9-30.9-1.8-65-7.1-95.3-21.4 42.6 62.8 108.7 96.1 150 96.1 64.9 0 191.1-81.9 191.1-232.1zm53.8-72C547.4 116.3 463 38.2 306 38.2S64.6 116.3 61.1 264.3H82c7.6-49.9 23.8-90.9 48.3-122.4 39.1-50.2 98.2-75.7 175.7-75.7s136.6 25.5 175.7 75.7c24.5 31.5 40.6 72.5 48.3 122.4h20.9z" fill="#333"/></symbol><symbol id="sprite"/></svg>